<?xml version="1.0" encoding="UTF-8"?>
<svg version="1.1" xmlns="http://www.w3.org/2000/svg" width="668" height="374">
<path d="M0 0 C1.69768776 -0.00788544 1.69768776 -0.00788544 3.42967224 -0.01593018 C7.13302838 -0.02902367 10.8359469 -0.02042911 14.53930664 -0.01025391 C17.1366026 -0.01227783 19.73389799 -0.01519192 22.33119202 -0.01895142 C27.76024345 -0.0233605 33.18913363 -0.01728099 38.61816406 -0.00292969 C44.86098542 0.01338409 51.10351255 0.00810813 57.34632677 -0.0084089 C63.39370656 -0.02375785 69.44094451 -0.02201289 75.48834419 -0.0132637 C78.04260869 -0.01127383 80.59688079 -0.01367796 83.1511364 -0.02070236 C117.88583926 -0.09527239 117.88583926 -0.09527239 132.81274414 14.04052734 C138.1138641 19.51042392 141.3531187 23.98669912 143.01196289 31.38818359 C143.18519388 32.05511986 143.35842487 32.72205612 143.53690529 33.40920258 C145.01441703 39.34255856 145.30830243 44.95701198 145.30249023 51.05419922 C145.30920746 52.0815921 145.31592468 53.10898499 145.32284546 54.16751099 C145.34174436 57.54320196 145.3457462 60.91869309 145.34790039 64.29443359 C145.3543361 66.66223225 145.36106503 69.03003012 145.36807251 71.39782715 C145.38002664 76.35719645 145.38375547 81.31649622 145.38256836 86.27587891 C145.38236578 92.58874115 145.40961333 98.90115014 145.44411278 105.21390533 C145.46650561 110.10597728 145.47040205 114.99794251 145.46934891 119.89006042 C145.47168837 122.2149562 145.48041696 124.53985568 145.49601364 126.86470032 C145.70667667 161.5226019 145.70667667 161.5226019 134.13305664 174.48193359 C132.01196289 176.38818359 132.01196289 176.38818359 129.01196289 177.38818359 C128.75157227 177.99404297 128.49118164 178.59990234 128.22290039 179.22412109 C126.40745787 182.46849257 123.92512697 183.36547223 120.63696289 185.01318359 C119.49485352 185.60357422 118.35274414 186.19396484 117.17602539 186.80224609 C104.66320434 192.03748417 90.18633959 190.69814753 76.92602539 190.68896484 C74.57774786 190.69285886 72.22947102 190.69719497 69.88119507 190.70195007 C64.97424022 190.70938395 60.06735736 190.70914152 55.16040039 190.70385742 C48.90457153 190.69806527 42.64903898 190.71500184 36.39325905 190.7382021 C31.54764107 190.75300704 26.70209335 190.75380198 21.85645676 190.75069237 C19.55141996 190.75120214 17.24637888 190.75637439 14.94136429 190.76650429 C-5.14772483 190.84397148 -21.69383161 189.86437042 -37.52709961 176.09912109 C-38.98803711 174.38818359 -38.98803711 174.38818359 -39.51147461 172.23974609 C-39.66874023 171.62873047 -39.82600586 171.01771484 -39.98803711 170.38818359 C-40.97803711 170.05818359 -41.96803711 169.72818359 -42.98803711 169.38818359 C-52.05841278 153.4101197 -50.14880627 132.15078679 -50.15600586 114.41943359 C-50.15922984 112.52624488 -50.16259471 110.6330564 -50.16609192 108.73986816 C-50.1720352 104.79662499 -50.17393665 100.85340358 -50.17333984 96.91015625 C-50.17323812 91.89776126 -50.18692269 86.88550758 -50.20411205 81.87314606 C-50.21531246 77.97112404 -50.21725665 74.06913544 -50.21673012 70.167099 C-50.2178969 68.32062796 -50.22224388 66.47415566 -50.23006248 64.62770081 C-50.37398373 27.156058 -50.37398373 27.156058 -35.98803711 12.38818359 C-25.11619337 2.44478932 -14.48396594 -0.08458835 0 0 Z " fill="#D25CD3" transform="translate(285.988037109375,90.61181640625)"/>
<path d="M0 0 C5.5576753 -0.29879975 10.49769747 -3.70957035 15.29296875 -6.29296875 C17.15986098 -7.26654432 19.07785636 -8.14063988 21 -9 C21.99 -8.67 22.98 -8.34 24 -8 C23.46890625 -7.28714844 22.9378125 -6.57429687 22.390625 -5.83984375 C21.33101562 -4.40318359 21.33101562 -4.40318359 20.25 -2.9375 C19.55390625 -1.99777344 18.8578125 -1.05804688 18.140625 -0.08984375 C17.43421875 0.92980469 16.7278125 1.94945312 16 3 C15.5764624 3.56106445 15.1529248 4.12212891 14.71655273 4.70019531 C13.28795749 6.65992428 13.28795749 6.65992428 12 10 C13.03775889 12.72209654 13.90934984 14.33141947 15.5625 16.625 C23.17103041 28.5157104 24.82527883 41.77626557 22.34375 55.67578125 C20.28726187 63.78649954 16.97374526 70.30289563 12 77 C11.5153125 77.66773438 11.030625 78.33546875 10.53125 79.0234375 C6.77027763 83.80823013 2.14378288 86.83534882 -3 90 C-3.99 90.66 -4.98 91.32 -6 92 C-7.32 92 -8.64 92 -10 92 C-10 92.66 -10 93.32 -10 94 C-10.85464844 94.20496094 -11.70929688 94.40992188 -12.58984375 94.62109375 C-13.69457031 94.89050781 -14.79929687 95.15992188 -15.9375 95.4375 C-17.03964844 95.70433594 -18.14179688 95.97117187 -19.27734375 96.24609375 C-21.89421254 96.72995725 -21.89421254 96.72995725 -23 98 C-35.5927337 98.90688411 -46.27737243 98.27381272 -57.37109375 91.56640625 C-59.69770654 90.23513583 -61.33721136 89.37144783 -64 89 C-68.34708876 90.45647005 -72.06606195 92.68139405 -76 95 C-79.00056787 96.35990649 -80.68689872 97 -84 97 C-83.48679584 92.53352005 -81.87931999 90.21112591 -79 86.8125 C-76.21368125 83.59404028 -76.21368125 83.59404028 -74 80 C-73.34 80 -72.68 80 -72 80 C-72 78.35 -72 76.7 -72 75 C-72.99 74.67 -73.98 74.34 -75 74 C-76.33560271 71.86125089 -77.46937023 69.82087268 -78.5625 67.5625 C-78.8726001 66.92505859 -79.1827002 66.28761719 -79.50219727 65.63085938 C-85.41725076 53.05008696 -85.84126619 39.22987271 -81.25 26.09375 C-75.0379297 10.71887602 -65.17311785 1.48854912 -50.4375 -5.75 C-33.55773168 -11.88809757 -15.03141916 -10.0209461 0 0 Z " fill="#7D38AD" transform="translate(364,142)"/>
<path d="M0 0 C2.33131816 1.47731099 4.28576571 3.05372922 6.3125 4.92578125 C7.04339844 5.57546875 7.77429688 6.22515625 8.52734375 6.89453125 C14.34836192 12.36818306 17.40400304 16.65126684 17.8125 24.80078125 C17.66360417 30.80872788 16.04133727 34.32400809 12.3125 38.92578125 C11.69375 39.79203125 11.075 40.65828125 10.4375 41.55078125 C5.52445762 47.04182861 0.79597424 51.49370676 -6.80859375 52.2265625 C-16.56873487 52.26105063 -21.60613045 50.35739101 -28.79296875 43.81640625 C-34.51226893 38.10889844 -37.15822167 32.68928618 -38.0625 24.55078125 C-37.57315663 19.82046199 -35.82389227 16.13180353 -33.6875 11.92578125 C-33.0275 11.92578125 -32.3675 11.92578125 -31.6875 11.92578125 C-31.419375 11.28640625 -31.15125 10.64703125 -30.875 9.98828125 C-29.6875 7.92578125 -29.6875 7.92578125 -26.6875 6.92578125 C-26.3575 5.93578125 -26.0275 4.94578125 -25.6875 3.92578125 C-19.28691866 -2.79672282 -8.26185115 -3.30233876 0 0 Z " fill="#D058D2" transform="translate(343.6875,161.07421875)"/>
<path d="M0 0 C8.73355802 0 14.74983302 5.9386394 20.82421875 11.66015625 C26.10276365 17.13905468 29.34267964 21.60531461 31 29 C31.17323099 29.66693626 31.34646198 30.33387253 31.5249424 31.02101898 C33.00245414 36.95437496 33.29633954 42.56882839 33.29052734 48.66601562 C33.29724457 49.69340851 33.30396179 50.72080139 33.31088257 51.77932739 C33.32978147 55.15501837 33.33378331 58.53050949 33.3359375 61.90625 C33.34237321 64.27404865 33.34910214 66.64184653 33.35610962 69.00964355 C33.36806375 73.96901286 33.37179257 78.92831262 33.37060547 83.88769531 C33.37040289 90.20055756 33.39765044 96.51296654 33.43214989 102.82572174 C33.45454272 107.71779369 33.45843916 112.60975891 33.45738602 117.50187683 C33.45972548 119.82677261 33.46845407 122.15167209 33.48405075 124.47651672 C33.69471377 159.1344183 33.69471377 159.1344183 22.12109375 172.09375 C20 174 20 174 17 175 C16.73960937 175.60585938 16.47921875 176.21171875 16.2109375 176.8359375 C14.39549498 180.08030897 11.91316408 180.97728864 8.625 182.625 C7.48289062 183.21539062 6.34078125 183.80578125 5.1640625 184.4140625 C-7.34875855 189.64930058 -21.8256233 188.30996394 -35.0859375 188.30078125 C-37.43421503 188.30467527 -39.78249187 188.30901137 -42.13076782 188.31376648 C-47.03772267 188.32120035 -51.94460554 188.32095792 -56.8515625 188.31567383 C-63.10739136 188.30988168 -69.36292392 188.32681824 -75.61870384 188.3500185 C-80.46432182 188.36482345 -85.30986954 188.36561838 -90.15550613 188.36250877 C-92.46054293 188.36301854 -94.76558401 188.3681908 -97.0705986 188.37832069 C-117.15968772 188.45578788 -133.7057945 187.47618682 -149.5390625 173.7109375 C-151 172 -151 172 -151.5234375 169.8515625 C-151.68070313 169.24054688 -151.83796875 168.62953125 -152 168 C-152.99 167.67 -153.98 167.34 -155 167 C-164.07037567 151.0219361 -162.16076916 129.7626032 -162.16796875 112.03125 C-162.17119273 110.13806128 -162.1745576 108.2448728 -162.17805481 106.35168457 C-162.18399809 102.40844139 -162.18589954 98.46521999 -162.18530273 94.52197266 C-162.18520101 89.50957767 -162.19888558 84.49732398 -162.21607494 79.48496246 C-162.22727535 75.58294045 -162.22921954 71.68095184 -162.22869301 67.77891541 C-162.22985979 65.93244436 -162.23420677 64.08597207 -162.24202538 62.23951721 C-162.31786263 42.49436682 -162.27337745 25.05580512 -148 10 C-146.3603279 8.63360658 -144.70098646 7.28926359 -143 6 C-142.34 6.33 -141.68 6.66 -141 7 C-142.61594832 9.04119788 -144.2856382 11.04072937 -146 13 C-146.66 13 -147.32 13 -148 13 C-148.09796875 13.54527344 -148.1959375 14.09054688 -148.296875 14.65234375 C-149.2989384 19.70585313 -150.76281372 24.12130502 -153 28.76171875 C-156.09149207 35.68134749 -156.25535736 41.53684879 -156.15625 49.02734375 C-156.14815308 50.21432358 -156.14005615 51.40130341 -156.13171387 52.62425232 C-156.10106575 56.41644463 -156.05332138 60.20806239 -156 64 C-155.98356445 65.20891907 -155.96712891 66.41783813 -155.95019531 67.66339111 C-155.82669863 76.29694506 -155.66571478 84.92967042 -155.5 93.5625 C-154.93861645 123.1565785 -154.93861645 123.1565785 -155.0390625 135.203125 C-155.04791473 136.41348671 -155.04791473 136.41348671 -155.0569458 137.64830017 C-155.0863717 141.21436861 -155.13390545 144.77868486 -155.21289062 148.34399414 C-155.32324967 157.29687162 -154.36533099 163.27093581 -148 170 C-146.01310269 171.35278115 -144.01254782 172.68568305 -142 174 C-140.33333333 175.66666667 -138.66666667 177.33333333 -137 179 C-136.01 179.33 -135.02 179.66 -134 180 C-134 180.66 -134 181.32 -134 182 C-132.824375 182.185625 -132.824375 182.185625 -131.625 182.375 C-129.69193637 182.70828683 -127.75951939 183.05479129 -125.84694862 183.4905529 C-119.47664174 184.91895288 -113.46415031 185.27514003 -106.95068359 185.22705078 C-105.89583771 185.22734283 -104.84099182 185.22763489 -103.75418091 185.22793579 C-100.30217982 185.22655356 -96.85040041 185.21104475 -93.3984375 185.1953125 C-90.99134438 185.19157843 -88.58424973 185.18873332 -86.17715454 185.18673706 C-79.86761212 185.17913161 -73.558163 185.15950979 -67.24865723 185.1373291 C-60.7998989 185.11680395 -54.35112538 185.10772112 -47.90234375 185.09765625 C-35.26818955 185.07626087 -22.63409976 185.04255148 -10 185 C-9.34 183.68 -8.68 182.36 -8 181 C-5.61435923 181.57584432 -3.33317216 182.22227595 -1 183 C7.21911685 179.84518747 13.97184627 175.36305116 20 169 C19.67 168.01 19.34 167.02 19 166 C19.33 165.01 19.66 164.02 20 163 C20.99 163 21.98 163 23 163 C23.12375 162.29875 23.2475 161.5975 23.375 160.875 C24 158 24 158 25.00093079 155.15782166 C28.86700829 142.93806441 27.19909988 128.08022317 27.23828125 115.40234375 C27.24235678 114.28185701 27.2464323 113.16137028 27.25063133 112.0069294 C27.27136697 106.08624591 27.28572734 100.1655848 27.29516602 94.24487305 C27.30626082 88.16034066 27.34073243 82.07617082 27.38033772 75.99176693 C27.40655577 71.28092296 27.41486201 66.57016533 27.41844749 61.85925484 C27.42329253 59.6167408 27.43484639 57.37423007 27.45348549 55.13178825 C27.78602732 39.88163066 27.78602732 39.88163066 23.95768738 25.28834534 C22.94615477 22.87133956 22.43725511 20.5772975 22 18 C21.40445313 17.91363281 20.80890625 17.82726562 20.1953125 17.73828125 C17.38711359 16.79388695 16.57358785 15.58419856 14.875 13.1875 C14.37742187 12.50042969 13.87984375 11.81335938 13.3671875 11.10546875 C12.07975902 9.12282889 11.00798964 7.13597804 10 5 C9.34 5 8.68 5 8 5 C8 4.34 8 3.68 8 3 C5.36 2.34 2.72 1.68 0 1 C0 0.67 0 0.34 0 0 Z " fill="#7435A6" transform="translate(398,93)"/>
<path d="M0 0 C0.66 0.33 1.32 0.66 2 1 C0.38405168 3.04119788 -1.2856382 5.04072937 -3 7 C-3.66 7 -4.32 7 -5 7 C-5.09796875 7.54527344 -5.1959375 8.09054688 -5.296875 8.65234375 C-6.2989384 13.70585313 -7.76281372 18.12130502 -10 22.76171875 C-13.08996366 29.67792648 -13.25537252 35.52891997 -13.15625 43.015625 C-13.14815308 44.20198547 -13.14005615 45.38834595 -13.13171387 46.61065674 C-13.10103253 50.407379 -13.05324981 54.2035308 -13 58 C-12.98356445 59.21598877 -12.96712891 60.43197754 -12.95019531 61.68481445 C-12.8449691 69.09581728 -12.71299308 76.50616728 -12.57192993 83.91656494 C-11.89725778 119.87255487 -11.89725778 119.87255487 -11.8125 137.125 C-11.79316406 138.96916504 -11.79316406 138.96916504 -11.7734375 140.85058594 C-11.77214844 141.9337207 -11.77085937 143.01685547 -11.76953125 144.1328125 C-11.76542236 145.03918457 -11.76131348 145.94555664 -11.75708008 146.87939453 C-12 149 -12 149 -14 151 C-14.33 149.68 -14.66 148.36 -15 147 C-15.66 147 -16.32 147 -17 147 C-18.53689229 133.10454379 -19.3019395 119.42128402 -19.265625 105.4453125 C-19.26697869 103.56069896 -19.26892501 101.67608576 -19.27142334 99.79147339 C-19.27433723 95.88405968 -19.27019662 91.97673869 -19.26074219 88.06933594 C-19.24930197 83.10417945 -19.25595992 78.13923823 -19.26788712 73.17408943 C-19.27516711 69.29780499 -19.27279063 65.42157034 -19.26763153 61.54528427 C-19.26631443 59.71556446 -19.26787317 57.88583985 -19.27259064 56.05612564 C-19.31225557 36.37635277 -19.22179603 19.00139614 -5 4 C-3.3603279 2.63360658 -1.70098646 1.28926359 0 0 Z " fill="#A649C1" transform="translate(255,99)"/>
<path d="M0 0 C8.73355802 0 14.74983302 5.9386394 20.82421875 11.66015625 C26.10682811 17.14327341 29.35915885 21.59652475 31 29 C31.18022705 29.65822754 31.3604541 30.31645508 31.54614258 30.99462891 C33.65291019 39.52343846 33.01861168 48.11748948 32.6875 56.8125 C32.63768247 58.39124513 32.58884835 59.97002161 32.54101562 61.54882812 C32.32615783 68.23559009 32.04414842 74.89247584 31.45703125 81.55859375 C30.73951412 90.1898031 30.94086433 98.82533144 31.02050781 107.47802734 C31.09027274 115.82962362 31.03081213 124.14339828 30.5625 132.484375 C30.52326416 133.20981506 30.48402832 133.93525513 30.44360352 134.68267822 C30.12576143 139.74847714 30.12576143 139.74847714 29 142 C29.66 142 30.32 142 31 142 C31.04241723 144.33294775 31.04092937 146.66702567 31 149 C30.67 149.33 30.34 149.66 30 150 C29.76924918 151.34747084 29.58846937 152.70377565 29.4375 154.0625 C29.2209375 156.0115625 29.2209375 156.0115625 29 158 C28.34 158 27.68 158 27 158 C27.12375 158.721875 27.2475 159.44375 27.375 160.1875 C26.94638494 163.40211294 26.49947518 163.79534876 24.125 165.8125 C21 168 21 168 19 168 C19.33 166.35 19.66 164.7 20 163 C20.99 163 21.98 163 23 163 C23.12375 162.29875 23.2475 161.5975 23.375 160.875 C24 158 24 158 25.00093079 155.15782166 C28.86700829 142.93806441 27.19909988 128.08022317 27.23828125 115.40234375 C27.24235678 114.28185701 27.2464323 113.16137028 27.25063133 112.0069294 C27.27136697 106.08624591 27.28572734 100.1655848 27.29516602 94.24487305 C27.30626082 88.16034066 27.34073243 82.07617082 27.38033772 75.99176693 C27.40655577 71.28092296 27.41486201 66.57016533 27.41844749 61.85925484 C27.42329253 59.6167408 27.43484639 57.37423007 27.45348549 55.13178825 C27.78602732 39.88163066 27.78602732 39.88163066 23.95768738 25.28834534 C22.94615477 22.87133956 22.43725511 20.5772975 22 18 C21.40445312 17.91363281 20.80890625 17.82726562 20.1953125 17.73828125 C17.38711359 16.79388695 16.57358785 15.58419856 14.875 13.1875 C14.37742187 12.50042969 13.87984375 11.81335938 13.3671875 11.10546875 C12.07975902 9.12282889 11.00798964 7.13597804 10 5 C9.34 5 8.68 5 8 5 C8 4.34 8 3.68 8 3 C5.36 2.34 2.72 1.68 0 1 C0 0.67 0 0.34 0 0 Z " fill="#A447BF" transform="translate(398,93)"/>
<path d="M0 0 C1.37917351 -0.00639748 1.37917351 -0.00639748 2.78620911 -0.01292419 C4.31179192 -0.01224442 4.31179192 -0.01224442 5.86819458 -0.0115509 C6.93331772 -0.01490952 7.99844086 -0.01826813 9.09584045 -0.02172852 C12.64122668 -0.03127868 16.1865658 -0.03318425 19.73196411 -0.03425598 C22.1928306 -0.03746786 24.6536969 -0.04083188 27.11456299 -0.04434204 C32.2881413 -0.05034494 37.46170288 -0.05218096 42.63528442 -0.05158997 C49.24701262 -0.05148876 55.85863242 -0.06509271 62.47033501 -0.08236217 C67.56118251 -0.09351846 72.65200422 -0.09550799 77.7428627 -0.09498024 C80.17876684 -0.09615674 82.61467173 -0.10055994 85.05056381 -0.10831261 C88.47292221 -0.11817708 91.89505075 -0.11520803 95.31741333 -0.10920715 C96.31422623 -0.11482666 97.31103912 -0.12044617 98.33805847 -0.12623596 C104.99347782 -0.09677766 111.23389822 0.7415918 117.73977661 2.13371277 C118.06977661 3.45371277 118.39977661 4.77371277 118.73977661 6.13371277 C118.02516769 5.92095703 117.31055878 5.70820129 116.57429504 5.48899841 C106.46085822 2.7906088 96.84820763 2.72904767 86.44680786 2.80558777 C84.60604508 2.80865404 82.76527996 2.81052355 80.92451477 2.81126404 C77.08948714 2.81583664 73.25467306 2.8301456 69.41970825 2.85246277 C64.52785875 2.88080241 59.63617603 2.89168452 54.7442522 2.89614487 C50.04091644 2.90132153 45.3376215 2.91583411 40.63430786 2.93058777 C39.30863769 2.93340885 39.30863769 2.93340885 37.95618629 2.93628693 C25.76646033 2.92194697 25.76646033 2.92194697 13.62998962 3.9407959 C10.58471649 4.25159926 7.64685866 3.90537494 4.61477661 3.57121277 C-5.26882168 2.75915496 -12.52658764 5.7668949 -21.26022339 10.13371277 C-21.26022339 8.81371277 -21.26022339 7.49371277 -21.26022339 6.13371277 C-16.69630982 3.49144702 -12.465633 2.4377736 -7.33444214 1.56340027 C-4.39117633 0.95368419 -3.28310315 0.00684884 0 0 Z " fill="#E76ED0" transform="translate(282.2602233886719,92.86628723144531)"/>
<path d="M0 0 C0.33 0 0.66 0 1 0 C1.09311904 13.65740622 1.16397642 27.31473558 1.20724869 40.9723959 C1.22802839 47.31577797 1.25616868 53.65894113 1.30175781 60.00219727 C1.34556053 66.13602378 1.36920921 72.26964115 1.37950897 78.40361214 C1.38683899 80.73131663 1.40115071 83.05901106 1.42292023 85.38662529 C1.73426816 120.09012806 1.73426816 120.09012806 -9.87890625 133.09375 C-12 135 -12 135 -15 136 C-15.40605469 136.91652344 -15.40605469 136.91652344 -15.8203125 137.8515625 C-17.52465493 140.95549738 -19.7444008 141.80587326 -22.875 143.375 C-23.92429687 143.91898438 -24.97359375 144.46296875 -26.0546875 145.0234375 C-29 146 -29 146 -31.3828125 145.1640625 C-31.91648437 144.77992188 -32.45015625 144.39578125 -33 144 C-31.80503906 143.43732422 -31.80503906 143.43732422 -30.5859375 142.86328125 C-21.65365517 138.54927142 -14.2703447 133.85195385 -8.3125 125.6875 C-7.879375 125.130625 -7.44625 124.57375 -7 124 C-6.34 124 -5.68 124 -5 124 C-5 122.35 -5 120.7 -5 119 C-4.34 119 -3.68 119 -3 119 C-3.020625 117.700625 -3.04125 116.40125 -3.0625 115.0625 C-3.08399454 113.70834367 -3.07148199 112.35243917 -3 111 C-2.67 110.67 -2.34 110.34 -2 110 C-1.63239269 107.67182036 -1.29758419 105.3381615 -1 103 C-1.66 103 -2.32 103 -3 103 C-2.96970703 102.33919434 -2.93941406 101.67838867 -2.90820312 100.99755859 C-2.24182074 86.04240006 -1.88932383 71.1463744 -2.03710938 56.17919922 C-2.07836626 50.34690425 -1.92973442 44.69559653 -1.25830078 38.90551758 C-0.62259739 31.75475576 -0.60985304 24.54910731 -0.4375 17.375 C-0.39421794 15.68618923 -0.35060089 13.997387 -0.30664062 12.30859375 C-0.20056404 8.20581756 -0.0990236 4.10295223 0 0 Z " fill="#8C3FB6" transform="translate(430,132)"/>
<path d="M0 0 C0.66 0.33 1.32 0.66 2 1 C0.38405168 3.04119788 -1.2856382 5.04072937 -3 7 C-3.66 7 -4.32 7 -5 7 C-5.09796875 7.54527344 -5.1959375 8.09054688 -5.296875 8.65234375 C-6.2989384 13.70585313 -7.76281372 18.12130502 -10 22.76171875 C-12.87680839 29.20082503 -13.39829952 34.9039602 -13.625 41.875 C-13.66367188 42.84953125 -13.70234375 43.8240625 -13.7421875 44.828125 C-13.83593033 47.2185672 -13.9216383 49.60901244 -14 52 C-14.99 51.34 -15.98 50.68 -17 50 C-17.29296875 47.6171875 -17.29296875 47.6171875 -17.1875 44.875 C-17.16042969 43.96492188 -17.13335937 43.05484375 -17.10546875 42.1171875 C-17.07066406 41.41851562 -17.03585938 40.71984375 -17 40 C-17.66 39.67 -18.32 39.34 -19 39 C-17.25799299 23.44490208 -14.90305357 12.25254464 -2.2109375 1.67578125 C-1.48132813 1.12277344 -0.75171875 0.56976563 0 0 Z " fill="#A849BE" transform="translate(255,99)"/>
<path d="M0 0 C1.65795845 -0.00525696 1.65795845 -0.00525696 3.34941101 -0.01062012 C6.98121536 -0.01937878 10.61282278 -0.01360812 14.24462891 -0.00683594 C16.78374265 -0.00818446 19.32285613 -0.01012656 21.86196899 -0.01263428 C27.17607324 -0.01557777 32.49010787 -0.01150645 37.80419922 -0.00195312 C43.92140667 0.00891799 50.03848063 0.00541098 56.15568483 -0.00560594 C62.07115356 -0.01582758 67.98658136 -0.01467905 73.90205765 -0.00884247 C76.4049443 -0.00751389 78.90783438 -0.00912576 81.41071701 -0.01380157 C84.91843252 -0.01891623 88.4258968 -0.01108685 91.93359375 0 C93.46606499 -0.00607269 93.46606499 -0.00607269 95.02949524 -0.01226807 C103.5661379 0.03737775 111.68958847 0.88677589 119.59619141 4.25878906 C119.59619141 4.91878906 119.59619141 5.57878906 119.59619141 6.25878906 C120.25619141 6.25878906 120.91619141 6.25878906 121.59619141 6.25878906 C121.59619141 6.91878906 121.59619141 7.57878906 121.59619141 8.25878906 C122.58619141 8.58878906 123.57619141 8.91878906 124.59619141 9.25878906 C125.78369141 11.82128906 125.78369141 11.82128906 126.59619141 14.25878906 C123.8076204 12.89270259 121.08448069 11.46014523 118.40869141 9.88378906 C117.71388672 9.48417969 117.01908203 9.08457031 116.30322266 8.67285156 C114.25277698 6.97431304 113.96551315 5.84955351 113.59619141 3.25878906 C112.52369141 3.27941406 111.45119141 3.30003906 110.34619141 3.32128906 C106.59619141 3.25878906 106.59619141 3.25878906 104.65315151 2.76323986 C102.34586696 2.19739926 100.30980813 2.12999989 97.93482971 2.12507629 C97.00258575 2.12081131 96.0703418 2.11654633 95.10984802 2.1121521 C94.09415237 2.11260529 93.07845673 2.11305847 92.03198242 2.11352539 C90.41918396 2.10848747 90.41918396 2.10848747 88.77380371 2.10334778 C85.21588998 2.0938407 81.65802331 2.09189486 78.10009766 2.09082031 C75.62914511 2.08760785 73.15819275 2.08424379 70.6872406 2.08073425 C65.50641438 2.07474379 60.32560483 2.0728943 55.14477539 2.07348633 C48.50227563 2.07358801 41.85988262 2.05992906 35.21740818 2.04271412 C30.11394254 2.03160323 25.01050279 2.02956683 19.90702629 2.03009605 C17.45778981 2.02891482 15.00855268 2.02448506 12.55932808 2.01676369 C9.13607393 2.00698122 5.71305271 2.00983495 2.28979492 2.01586914 C1.2761235 2.01024963 0.26245209 2.00463013 -0.78193665 1.99884033 C-5.45025895 2.01978139 -9.1595715 2.08301273 -13.40380859 4.25878906 C-16.06952875 4.75192403 -18.70196576 4.98402538 -21.40380859 5.25878906 C-21.07380859 4.26878906 -20.74380859 3.27878906 -20.40380859 2.25878906 C-14.1429919 -0.45294545 -6.67896771 -0.02636215 0 0 Z " fill="#D469D0" transform="translate(286.40380859375,91.7412109375)"/>
<path d="M0 0 C0.66 0 1.32 0 2 0 C2.57092446 22.03980975 3.10045333 44.07679128 3.125 66.125 C3.12749756 66.91740082 3.12999512 67.70980164 3.13256836 68.5262146 C3.13838208 70.74929346 3.13702852 72.97223265 3.1328125 75.1953125 C3.13112061 77.06727295 3.13112061 77.06727295 3.12939453 78.97705078 C3 82 3 82 2 85 C1.34 85 0.68 85 0 85 C0 56.95 0 28.9 0 0 Z " fill="#8A3CB3" transform="translate(236,139)"/>
<path d="M0 0 C8.04745379 0 13.83557062 4.97965874 19.43945312 10.38964844 C29.6969295 20.83760064 29.6969295 20.83760064 30.20254517 26.11346436 C30.16923599 27.24597626 30.16923599 27.24597626 30.13525391 28.40136719 C30.11508209 29.2619574 30.09491028 30.12254761 30.0741272 31.00921631 C30.02583267 32.38910736 30.02583267 32.38910736 29.9765625 33.796875 C29.95153656 34.74564514 29.92651062 35.69441528 29.90072632 36.67193604 C29.8186415 39.698327 29.72200699 42.72405417 29.625 45.75 C29.5667487 47.80335842 29.50944567 49.85674397 29.453125 51.91015625 C29.31307967 56.94048504 29.15998521 61.97026749 29 67 C28.67 67 28.34 67 28 67 C27.9906543 66.0934668 27.98130859 65.18693359 27.97167969 64.25292969 C27.9271871 60.8304904 27.86536698 57.40921378 27.79248047 53.98730469 C27.76457023 52.51736529 27.74320971 51.04728415 27.72900391 49.57714844 C27.64224201 41.09761946 27.071675 33.53624815 23.94628906 25.52441406 C23.00849847 23.02267137 22.45286521 20.62851011 22 18 C21.40445312 17.91363281 20.80890625 17.82726562 20.1953125 17.73828125 C17.38711359 16.79388695 16.57358785 15.58419856 14.875 13.1875 C14.37742187 12.50042969 13.87984375 11.81335938 13.3671875 11.10546875 C12.07975902 9.12282889 11.00798964 7.13597804 10 5 C9.34 5 8.68 5 8 5 C8 4.34 8 3.68 8 3 C5.36 2.34 2.72 1.68 0 1 C0 0.67 0 0.34 0 0 Z " fill="#B752BF" transform="translate(398,93)"/>
<path d="M0 0 C0.495 0.16371094 0.99 0.32742187 1.5 0.49609375 C4.99631963 1.20082068 8.45078561 1.10429329 12 1.0625 C12.7115625 1.05798828 13.423125 1.05347656 14.15625 1.04882812 C16.10419313 1.03610835 18.05210094 1.01826155 20 1 C24 1 24 1 26 2 C26 2.33 26 2.66 26 3 C27.98 3.66 29.96 4.32 32 5 C32 5.33 32 5.66 32 6 C31.37996094 5.9278125 30.75992188 5.855625 30.12109375 5.78125 C12.5290573 3.93754312 -4.46587025 3.94711635 -18.9140625 15.53515625 C-19.69910156 16.22931641 -19.69910156 16.22931641 -20.5 16.9375 C-21.7375 17.9584375 -21.7375 17.9584375 -23 19 C-23.99 18.67 -24.98 18.34 -26 18 C-23.80528594 13.48864333 -21.58826282 11.93726652 -17 10 C-17 9.01 -17 8.02 -17 7 C-16.01 7.061875 -15.02 7.12375 -14 7.1875 C-9.64490767 7.17863016 -5.80569209 6.13011805 -2 4 C-0.44033992 1.98020421 -0.44033992 1.98020421 0 0 Z " fill="#E469D7" transform="translate(320,129)"/>
<path d="M0 0 C0.33 0 0.66 0 1 0 C1.05534912 1.16982422 1.11069824 2.33964844 1.16772461 3.54492188 C1.37524019 7.91356345 1.5868094 12.28200115 1.79956055 16.65039062 C1.89082431 18.53575463 1.98101043 20.42117114 2.07006836 22.30664062 C2.19877668 25.0274914 2.33144763 27.7481255 2.46484375 30.46875 C2.50343002 31.30241089 2.5420163 32.13607178 2.58177185 32.99499512 C2.77509519 36.86584611 3.07200425 40.63820449 3.65844727 44.47070312 C3.77115967 45.63537109 3.88387207 46.80003906 4 48 C3.34 48.66 2.68 49.32 2 50 C1.67 48.68 1.34 47.36 1 46 C0.34 46 -0.32 46 -1 46 C-1.66 39.07 -2.32 32.14 -3 25 C-2.34 24.67 -1.68 24.34 -1 24 C-0.67 16.08 -0.34 8.16 0 0 Z " fill="#9640BC" transform="translate(239,200)"/>
<path d="M0 0 C3.30805579 3.76433935 5.03722305 7.42018713 7 12 C9.78660885 16.13186829 12.86011841 18.29640386 17 21 C18.66666667 22.66666667 20.33333333 24.33333333 22 26 C22.99 26.33 23.98 26.66 25 27 C25 27.66 25 28.32 25 29 C25.78375 29.12375 26.5675 29.2475 27.375 29.375 C31.9353326 30.16126424 36.46567093 31.07700416 41 32 C41 32.33 41 32.66 41 33 C30.19905036 34.38869352 21.95763402 30.26050385 13.3671875 24.1171875 C8.20024103 19.83917806 8.20024103 19.83917806 7.48828125 16.85546875 C7.32714844 16.24316406 7.16601562 15.63085938 7 15 C6.01 14.67 5.02 14.34 4 14 C2.83203125 11.85546875 2.83203125 11.85546875 1.8125 9.1875 C1.46832031 8.31480469 1.12414062 7.44210938 0.76953125 6.54296875 C0 4 0 4 0 0 Z " fill="#803BB2" transform="translate(239,246)"/>
<path d="M0 0 C3.3 0 6.6 0 10 0 C10 1.98 10 3.96 10 6 C9.34 6 8.68 6 8 6 C8 6.66 8 7.32 8 8 C7.34 8 6.68 8 6 8 C6.33 6.35 6.66 4.7 7 3 C6.38479492 3.3081665 5.76958984 3.61633301 5.13574219 3.93383789 C2.34645692 5.32243058 -0.45149516 6.6925897 -3.25 8.0625 C-4.21808594 8.54783203 -5.18617188 9.03316406 -6.18359375 9.53320312 C-7.11816406 9.98759766 -8.05273438 10.44199219 -9.015625 10.91015625 C-9.87446289 11.33433838 -10.73330078 11.75852051 -11.61816406 12.19555664 C-14.30111371 13.10169841 -15.41128042 13.07494749 -18 12 C-20.25 9.9375 -20.25 9.9375 -22 8 C-16.25 8.875 -16.25 8.875 -14 10 C-14 9.01 -14 8.02 -14 7 C-13.34 7 -12.68 7 -12 7 C-11.67 7.66 -11.34 8.32 -11 9 C-10.34 9 -9.68 9 -9 9 C-9 8.34 -9 7.68 -9 7 C-4.61538462 4 -4.61538462 4 -2 4 C-2 3.34 -2 2.68 -2 2 C-1.34 2 -0.68 2 0 2 C0 1.34 0 0.68 0 0 Z " fill="#DD69D5" transform="translate(381,130)"/>
<path d="M0 0 C1.17027439 3.71541659 0.69678321 6.05846799 -0.77734375 9.69921875 C-3.52627228 14.87212259 -7.30440429 21.1014681 -13 23 C-13.40605469 23.91652344 -13.40605469 23.91652344 -13.8203125 24.8515625 C-15.52465493 27.95549738 -17.7444008 28.80587326 -20.875 30.375 C-21.92429687 30.91898437 -22.97359375 31.46296875 -24.0546875 32.0234375 C-27 33 -27 33 -29.3828125 32.1640625 C-30.18332031 31.58785156 -30.18332031 31.58785156 -31 31 C-30.20335937 30.62488281 -29.40671875 30.24976563 -28.5859375 29.86328125 C-19.65365517 25.54927142 -12.2703447 20.85195385 -6.3125 12.6875 C-5.6628125 11.8521875 -5.6628125 11.8521875 -5 11 C-4.34 11 -3.68 11 -3 11 C-3 9.35 -3 7.7 -3 6 C-2.34 6 -1.68 6 -1 6 C-0.67 4.02 -0.34 2.04 0 0 Z " fill="#8138B4" transform="translate(428,245)"/>
<path d="M0 0 C0.33 0 0.66 0 1 0 C1.14695312 0.72703125 1.29390625 1.4540625 1.4453125 2.203125 C3.19587992 10.05049618 5.80025643 17.10961292 10 24 C10.66 24.33 11.32 24.66 12 25 C12 26.65 12 28.3 12 30 C11.34 30 10.68 30 10 30 C9.773125 30.515625 9.54625 31.03125 9.3125 31.5625 C7.51782382 34.89547005 5.50034985 38.14703671 3 41 C2.34 41 1.68 41 1 41 C5.12195122 32.43902439 5.12195122 32.43902439 8 31 C8 28.36 8 25.72 8 23 C7.01 23 6.02 23 5 23 C5 22.34 5 21.68 5 21 C4.34 21 3.68 21 3 21 C3.33 19.68 3.66 18.36 4 17 C3.34 17 2.68 17 2 17 C1.67 17.66 1.34 18.32 1 19 C0.67 12.73 0.34 6.46 0 0 Z " fill="#B551CD" transform="translate(280,192)"/>
<path d="M0 0 C0.33 0 0.66 0 1 0 C1.22354724 2.37443423 1.429163 4.74825095 1.625 7.125 C1.68945312 7.79015625 1.75390625 8.4553125 1.8203125 9.140625 C2.17202376 13.6249436 1.68198625 16.84956976 0 21 C-0.47759766 22.28583984 -0.47759766 22.28583984 -0.96484375 23.59765625 C-3.2946908 29.50180681 -5.47187742 34.47187742 -10 39 C-10.33 39.99 -10.66 40.98 -11 42 C-14.44444444 45 -14.44444444 45 -17 45 C-15.57160475 41.86035895 -13.81411118 39.40752362 -11.625 36.75 C-2.94804471 25.6967831 -0.6392666 13.86547212 0 0 Z " fill="#AD4ECA" transform="translate(387,181)"/>
<path d="M0 0 C0.66 0 1.32 0 2 0 C2.04241723 2.33294775 2.04092937 4.66702567 2 7 C1.67 7.33 1.34 7.66 1 8 C0.76924918 9.34747084 0.58846937 10.70377565 0.4375 12.0625 C0.293125 13.361875 0.14875 14.66125 0 16 C-0.66 16 -1.32 16 -2 16 C-1.87625 16.721875 -1.7525 17.44375 -1.625 18.1875 C-2.05361506 21.40211294 -2.50052482 21.79534876 -4.875 23.8125 C-8 26 -8 26 -10 26 C-9.67 24.35 -9.34 22.7 -9 21 C-8.01 21 -7.02 21 -6 21 C-5.896875 20.319375 -5.79375 19.63875 -5.6875 18.9375 C-5.01933529 16.08261442 -3.96535702 13.64457955 -2.765625 10.98046875 C-1.39529254 7.43578223 -0.71753981 3.72276539 0 0 Z " fill="#9C46C3" transform="translate(427,235)"/>
<path d="M0 0 C3.75722087 3.75722087 5.18394119 8.07260364 5.2487793 13.28295898 C5.20692517 14.85452384 5.14800559 16.42570419 5.07421875 17.99609375 C5.03455742 19.24641136 5.03455742 19.24641136 4.99409485 20.52198792 C4.90694088 23.16127156 4.79758458 25.79908345 4.6875 28.4375 C4.62417761 30.23627686 4.56231379 32.03510569 4.50195312 33.83398438 C4.35149905 38.2234374 4.18114026 42.61171055 4 47 C3.67 47 3.34 47 3 47 C2.98541748 46.08299316 2.97083496 45.16598633 2.95581055 44.22119141 C2.89424129 40.77287775 2.81999915 37.32529547 2.73754883 33.87744141 C2.70458303 32.39381957 2.67646583 30.91008085 2.65356445 29.42626953 C2.47499343 18.04466131 2.47499343 18.04466131 -0.46557617 7.09130859 C-1.13857287 4.45773632 -0.68374959 2.60023858 0 0 Z " fill="#BD53C2" transform="translate(423,113)"/>
<path d="M0 0 C0 0.99 0 1.98 0 3 C-1.9169986 2.68954268 -3.83358723 2.37655329 -5.75 2.0625 C-6.81734375 1.88847656 -7.8846875 1.71445313 -8.984375 1.53515625 C-12 1 -12 1 -14.1875 0.375 C-16.25566455 -0.19971823 -16.25566455 -0.19971823 -19.25 0.9375 C-23.45940863 2.13016578 -26.65621353 2.15241356 -31 2 C-30 0 -30 0 -26.90234375 -1.109375 C-18.22561024 -3.36652067 -8.47721199 -2.76806922 0 0 Z " fill="#7F319D" transform="translate(349,135)"/>
<path d="M0 0 C4.67717704 0.3118118 7.00487981 1.75418269 10.5 4.75 C19.1789643 10.5359762 29.72188306 9.93628329 39.75 10.25 C39.75 10.58 39.75 10.91 39.75 11.25 C27.92461942 11.8119241 18.61146103 11.56004762 7.75 6.25 C6.04345295 5.49594433 4.33529595 4.74551362 2.625 4 C1.94179688 3.68546875 1.25859375 3.3709375 0.5546875 3.046875 C-1.42021024 2.14108403 -1.42021024 2.14108403 -4.25 1.25 C-3.25 0.25 -3.25 0.25 0 0 Z " fill="#A34AC7" transform="translate(301.25,228.75)"/>
<path d="M0 0 C2.62832343 2.62832343 2.35861892 3.95934968 2.4375 7.625 C2.34154472 13.78828166 0.81928482 17.28076876 -3 22 C-3.66 22.928125 -4.32 23.85625 -5 24.8125 C-7.1339745 27.14653461 -9.21438113 28.52981226 -12 30 C-10.79743762 26.57732245 -9.66526328 24.44315801 -7 22 C-6.34 21.01 -5.68 20.02 -5 19 C-4.01 19 -3.02 19 -2 19 C-1.0672582 14.900639 -0.71174738 10.87956712 -0.4375 6.6875 C-0.35371094 5.43324219 -0.26992188 4.17898437 -0.18359375 2.88671875 C-0.12300781 1.93410156 -0.06242187 0.98148438 0 0 Z " fill="#BB55CE" transform="translate(359,178)"/>
<path d="M0 0 C0.66 0.33 1.32 0.66 2 1 C4.09821215 0.60061233 4.09821215 0.60061233 6 0 C2.49880901 5.33869548 0.34992847 8.26820133 -6 10 C-7.24174796 11.9001177 -7.24174796 11.9001177 -8 14 C-9.625 15.75 -9.625 15.75 -11 17 C-10.619826 11.55083937 -8.97730371 9.61573065 -5 6 C-3.28115301 4.03893067 -1.64660124 2.02296724 0 0 Z " fill="#D062CA" transform="translate(260,95)"/>
<path d="M0 0 C0.66 0.33 1.32 0.66 2 1 C0.38405168 3.04119788 -1.2856382 5.04072937 -3 7 C-3.66 7 -4.32 7 -5 7 C-5.09796875 7.54527344 -5.1959375 8.09054688 -5.296875 8.65234375 C-6.57690619 15.10767345 -8.22581857 22.22581857 -13 27 C-13 25.02 -13 23.04 -13 21 C-12.34 21 -11.68 21 -11 21 C-10.87882813 20.33613281 -10.75765625 19.67226562 -10.6328125 18.98828125 C-8.92830982 10.00686328 -7.28921831 5.67155756 0 0 Z " fill="#C456C5" transform="translate(255,99)"/>
<path d="M0 0 C-1.28367442 1.83893824 -2.57716761 3.67102625 -3.875 5.5 C-4.59429687 6.5209375 -5.31359375 7.541875 -6.0546875 8.59375 C-6.69664062 9.3878125 -7.33859375 10.181875 -8 11 C-8.66 11 -9.32 11 -10 11 C-10.33 9.35 -10.66 7.7 -11 6 C-11.66 6 -12.32 6 -13 6 C-13 5.34 -13 4.68 -13 4 C-11.40233897 3.13372601 -9.79660056 2.28233535 -8.1875 1.4375 C-7.29417969 0.96183594 -6.40085937 0.48617187 -5.48046875 -0.00390625 C-3 -1 -3 -1 0 0 Z " fill="#8535A0" transform="translate(388,134)"/>
<path d="M0 0 C3.30805579 3.76433935 5.03722305 7.42018713 7 12 C8.32869858 13.67036393 9.66104368 15.33784732 11 17 C11 17.99 11 18.98 11 20 C12.32 20.66 13.64 21.32 15 22 C14.67 22.66 14.34 23.32 14 24 C7.75264085 19.21478873 7.75264085 19.21478873 7 15 C6.01 14.67 5.02 14.34 4 14 C2.83203125 11.85546875 2.83203125 11.85546875 1.8125 9.1875 C1.46832031 8.31480469 1.12414062 7.44210938 0.76953125 6.54296875 C0 4 0 4 0 0 Z " fill="#7E33B2" transform="translate(239,246)"/>
<path d="M0 0 C9.39605802 -0.10731538 18.64087671 0.00736571 28 1 C27.67 1.66 27.34 2.32 27 3 C7.99544419 3.3690205 7.99544419 3.3690205 0 1 C0 0.67 0 0.34 0 0 Z " fill="#7423A5" transform="translate(271,278)"/>
<path d="M0 0 C5.45454545 0.45454545 5.45454545 0.45454545 8 3 C1.5 7 1.5 7 -3 7 C-2.25 2.25 -2.25 2.25 0 0 Z " fill="#9540BC" transform="translate(283,232)"/>
<path d="M0 0 C4.88701111 3.30591928 8.41007119 7.7222413 11 13 C11.16796875 15.78515625 11.16796875 15.78515625 11 18 C9.10786631 15.61426621 7.97608217 13.92824652 7 11 C6.01 12.485 6.01 12.485 5 14 C3 11 3 11 3.0625 8 C3.31746495 4.99564633 3.31746495 4.99564633 1.5 3.25 C1.005 2.8375 0.51 2.425 0 2 C0 1.34 0 0.68 0 0 Z " fill="#B14CB9" transform="translate(417,104)"/>
<path d="M0 0 C2.5 1.6875 2.5 1.6875 5 4 C5.3125 6.75 5.3125 6.75 5 9 C4.34 9 3.68 9 3 9 C2.773125 9.515625 2.54625 10.03125 2.3125 10.5625 C0.51782382 13.89547005 -1.49965015 17.14703671 -4 20 C-4.66 20 -5.32 20 -6 20 C-1.87804878 11.43902439 -1.87804878 11.43902439 1 10 C1.08004482 6.4780279 1.04005702 3.38018531 0 0 Z " fill="#AA4DC9" transform="translate(287,213)"/>
<path d="M0 0 C3.3 0 6.6 0 10 0 C10 1.98 10 3.96 10 6 C9.34 6 8.68 6 8 6 C8 6.66 8 7.32 8 8 C7.34 8 6.68 8 6 8 C6.33 6.35 6.66 4.7 7 3 C3.72724974 3 1.153368 3.29925156 -2 4 C-2 3.34 -2 2.68 -2 2 C-1.34 2 -0.68 2 0 2 C0 1.34 0 0.68 0 0 Z " fill="#F26CD9" transform="translate(381,130)"/>
<path d="M0 0 C0 0.33 0 0.66 0 1 C-1.134375 1.2475 -2.26875 1.495 -3.4375 1.75 C-8.93862942 3.11302494 -13.94741684 5.47370842 -19 8 C-19 6.68 -19 5.36 -19 4 C-12.5947675 0.56304597 -7.26612893 -1.77222657 0 0 Z " fill="#EE72D2" transform="translate(280,95)"/>
<path d="M0 0 C0.66 0.33 1.32 0.66 2 1 C2 1.33 2 1.66 2 2 C3.98 2.66 5.96 3.32 8 4 C8 4.33 8 4.66 8 5 C7.01773437 4.90912109 7.01773437 4.90912109 6.015625 4.81640625 C-0.98663453 4.17354344 -7.99184389 3.57484003 -15 3 C-15 2.67 -15 2.34 -15 2 C-14.00097656 1.93941406 -13.00195312 1.87882813 -11.97265625 1.81640625 C-10.68230469 1.73261719 -9.39195312 1.64882812 -8.0625 1.5625 C-6.77472656 1.48128906 -5.48695313 1.40007812 -4.16015625 1.31640625 C-1.13976043 1.35080812 -1.13976043 1.35080812 0 0 Z " fill="#DE69D6" transform="translate(344,130)"/>
<path d="M0 0 C0.33 0 0.66 0 1 0 C1.22354724 2.37443423 1.429163 4.74825095 1.625 7.125 C1.68945312 7.79015625 1.75390625 8.4553125 1.8203125 9.140625 C2.16801851 13.57387663 1.8184149 16.93021428 0 21 C-0.66 21.33 -1.32 21.66 -2 22 C-1.855625 20.783125 -1.71125 19.56625 -1.5625 18.3125 C-0.88136774 12.2212315 -0.44401931 6.11235086 0 0 Z " fill="#BC56CF" transform="translate(387,181)"/>
<path d="M0 0 C0.66 0.33 1.32 0.66 2 1 C1.54658132 2.27259511 1.08704773 3.54301243 0.625 4.8125 C0.36976563 5.52019531 0.11453125 6.22789063 -0.1484375 6.95703125 C-1 9 -1 9 -3 12 C-3.33 11.34 -3.66 10.68 -4 10 C-4.66 10.66 -5.32 11.32 -6 12 C-5.59791618 6.37082652 -3.71069698 3.99613521 0 0 Z " fill="#9C46B6" transform="translate(246,108)"/>
<path d="M0 0 C5.27630068 0.35175338 8.25968641 2.39228498 11.75 6.25 C6.97372995 5.66752804 3.12193909 4.229746 -1.25 2.25 C-2.24 1.92 -3.23 1.59 -4.25 1.25 C-3.25 0.25 -3.25 0.25 0 0 Z " fill="#9C45C0" transform="translate(301.25,228.75)"/>
<path d="M0 0 C0.99 0 1.98 0 3 0 C3.9765625 6.0546875 3.9765625 6.0546875 4 8 C3.34 8.66 2.68 9.32 2 10 C-0.09350689 6.5980513 -0.17942163 3.94727588 0 0 Z " fill="#9A45C2" transform="translate(239,240)"/>
<path d="M0 0 C3.875 1.875 3.875 1.875 5 3 C7.02825491 3.19316713 9.05723921 3.38325788 11.08984375 3.5234375 C13 4 13 4 15 7 C8.30371627 6.83631306 4.72342515 5.84453861 0 1 C0 0.67 0 0.34 0 0 Z " fill="#B451CB" transform="translate(318,206)"/>
<path d="M0 0 C0.66 0 1.32 0 2 0 C2.19573608 1.43640171 2.38127816 2.87419504 2.5625 4.3125 C2.66691406 5.11300781 2.77132812 5.91351563 2.87890625 6.73828125 C3 9 3 9 2 12 C1.34 12 0.68 12 0 12 C0 8.04 0 4.08 0 0 Z " fill="#8E3EB1" transform="translate(236,212)"/>
<path d="M0 0 C1.84304419 5.52913256 -0.71966211 9.94359859 -3 15 C-3.33 15 -3.66 15 -4 15 C-3.43179252 9.54520815 -2.05362055 5.08940744 0 0 Z " fill="#ED6CD9" transform="translate(246,116)"/>
<path d="M0 0 C-3.19668988 2.6486859 -6.39486597 4.93992341 -10 7 C-10 4 -10 4 -7.8125 1.8125 C-4.80799236 -0.12373826 -3.4826218 -0.39801392 0 0 Z " fill="#7F34A2" transform="translate(307,143)"/>
<path d="M0 0 C0.33 0.66 0.66 1.32 1 2 C-0.70847138 6.13629913 -2.67356033 9.01767477 -6 12 C-5.54300722 6.97307937 -3.00758252 3.85103739 0 0 Z " fill="#DB67D4" transform="translate(387,134)"/>
<path d="M0 0 C5.01113235 1.4317521 6.94469549 3.98445693 10 8 C7.6875 8.3125 7.6875 8.3125 5 8 C3.3125 5.5625 3.3125 5.5625 2 3 C1.34 2.67 0.68 2.34 0 2 C0 1.34 0 0.68 0 0 Z " fill="#8C3DB6" transform="translate(250,264)"/>
<path d="M0 0 C6.875 1.875 6.875 1.875 8 3 C8.04063832 4.66617115 8.042721 6.33388095 8 8 C3.96615872 5.92856799 2.07143201 4.03384128 0 0 Z " fill="#B853CD" transform="translate(310,198)"/>
<path d="M0 0 C3.61855575 0.62388892 4.1709277 1.1709277 7 4 C2.545 4.495 2.545 4.495 -2 5 C-1.34 3.35 -0.68 1.7 0 0 Z " fill="#9443BF" transform="translate(390,274)"/>
<path d="M0 0 C0.66 0.33 1.32 0.66 2 1 C-1.3 3.64 -4.6 6.28 -8 9 C-8.66 8.34 -9.32 7.68 -10 7 C-6.7 4.69 -3.4 2.38 0 0 Z " fill="#A649C6" transform="translate(368,226)"/>
<path d="M0 0 C0.66 0.33 1.32 0.66 2 1 C4.09821215 0.60061233 4.09821215 0.60061233 6 0 C3.79072873 3.48832306 1.91402949 4.73058503 -2 6 C-2.33 5.01 -2.66 4.02 -3 3 C-2.01 2.01 -1.02 1.02 0 0 Z " fill="#BC53C5" transform="translate(260,95)"/>
<path d="M0 0 C3.40843742 2.88406243 4.86591384 4.3708265 5.8125 8.8125 C5.9053125 10.3903125 5.9053125 10.3903125 6 12 C3.25207517 8.59780735 0 4.51535412 0 0 Z " fill="#963AB0" transform="translate(422,110)"/>
<path d="M0 0 C0.66 0.33 1.32 0.66 2 1 C-2.43076923 6.78461538 -2.43076923 6.78461538 -5.3125 7.875 C-5.869375 7.91625 -6.42625 7.9575 -7 8 C-5.50902342 4.2047869 -3.24299151 2.38957269 0 0 Z " fill="#A446BB" transform="translate(255,99)"/>
<path d="M0 0 C1.32 0.33 2.64 0.66 4 1 C0.04476345 3.75668002 -3.22423661 4.5317879 -8 5 C-5.4345406 2.4345406 -3.52313332 2.45953913 0 2 C0 1.34 0 0.68 0 0 Z " fill="#B352CB" transform="translate(343,208)"/>
<path d="M0 0 C0.66 0 1.32 0 2 0 C2 0.66 2 1.32 2 2 C0.46875 3.5078125 0.46875 3.5078125 -1.5 5.125 C-2.1496875 5.66382813 -2.799375 6.20265625 -3.46875 6.7578125 C-3.9740625 7.16773438 -4.479375 7.57765625 -5 8 C-5.33 7.34 -5.66 6.68 -6 6 C-4 4 -2 2 0 0 Z " fill="#8A36AB" transform="translate(315,166)"/>
<path d="M0 0 C0.66 0 1.32 0 2 0 C1.67 2.64 1.34 5.28 1 8 C0.34 8 -0.32 8 -1 8 C-1.33 8.99 -1.66 9.98 -2 11 C-2.24042276 6.91281305 -1.42258812 3.82320557 0 0 Z " fill="#8D3DB6" transform="translate(429,237)"/>
<path d="M0 0 C0.33 0.66 0.66 1.32 1 2 C0.34 2 -0.32 2 -1 2 C-1 2.66 -1 3.32 -1 4 C-3.5 5.625 -3.5 5.625 -6 7 C-6 5.68 -6 4.36 -6 3 C-4.02 2.01 -2.04 1.02 0 0 Z " fill="#E66CCE" transform="translate(267,96)"/>
</svg>
